# xmcd CD database file
# Copyright (C) 1993-1998 Ti Kan
#
# Track frame offsets:
# 150
# 15005
# 24487
# 32550
# 53525
# 61627
# 75022
# 98172
# 113860
# 127380
# 129707
# 171740
# 187232
# 199662
#
# Disc length: 2863 seconds
# Revision: 0
# Processed by: cddbd v1.4b41PL1 Copyright (c) Steve Scherf et al.
# Submitted via: CDSpectrumPro v3.3.333
#
DISCID=b10b2d0e
DTITLE=Electric Leprechaun - The Art Of War [CD1]
DYEAR=1900
DGENRE=
TTITLE0=Bear Your Arms
TTITLE1=The Fall
TTITLE2=Shotgun Shack
TTITLE3=I Wanna Zootsuit
TTITLE4=Questions
TTITLE5=Hiking For Vikings
TTITLE6=The Art Of War
TTITLE7=The Everglades Are Calling
TTITLE8=Fly My Kite
TTITLE9=Tommy The Turtle
TTITLE10=Prehistoric Polka
TTITLE11=I'll Dream Again
TTITLE12=Goin' Grapefruit
TTITLE13=Mr. Grindstone
EXTD=Mark Hudson- Vocals       John Kelly- Guitar                             
EXTD=                                    
EXTT0=
EXTT1=
EXTT2=
EXTT3=
EXTT4=
EXTT5=
EXTT6=
EXTT7=
EXTT8=
EXTT9=
EXTT10=
EXTT11=
EXTT12=
EXTT13=
PLAYORDER=
